<?xml version="1.0" standalone="no"?>
<!DOCTYPE svg PUBLIC "-//W3C//DTD SVG 20010904//EN"
 "http://www.w3.org/TR/2001/REC-SVG-20010904/DTD/svg10.dtd">
<svg version="1.0" xmlns="http://www.w3.org/2000/svg"
 width="561.000000pt" height="562.000000pt" viewBox="0 0 561.000000 562.000000"
 preserveAspectRatio="xMidYMid meet">

<g transform="translate(0.000000,562.000000) scale(0.100000,-0.100000)"
fill="#000000" stroke="none">
<path d="M0 2810 l0 -2810 2805 0 2805 0 0 2810 0 2810 -2805 0 -2805 0 0
-2810z m3394 1811 c154 -71 311 -142 347 -159 l66 -29 36 -86 c20 -48 77 -207
127 -354 l91 -267 -27 -49 c-19 -35 -23 -51 -15 -56 7 -4 79 -18 161 -31 l150
-23 205 -274 c114 -151 208 -280 211 -287 3 -8 -11 -148 -30 -312 -20 -165
-39 -332 -42 -372 l-7 -73 -59 -55 c-33 -30 -167 -135 -299 -233 l-239 -179
-45 10 c-75 16 -75 19 -48 -153 13 -85 21 -160 18 -167 -3 -8 -93 -138 -200
-291 l-196 -278 -377 -76 -377 -76 -65 38 c-61 37 -264 176 -468 321 l-91 65
-7 53 c-3 28 -10 52 -14 52 -4 0 -71 -31 -149 -68 l-141 -69 -329 102 c-180
56 -333 105 -339 109 -6 3 -31 44 -56 91 -26 46 -107 191 -182 322 -130 228
-136 240 -131 283 6 51 50 204 139 493 l62 199 49 25 50 25 -44 46 c-24 26
-75 79 -113 118 l-68 72 -6 350 -5 351 49 53 c403 440 467 506 492 512 15 4
185 11 377 15 l350 8 42 -40 42 -40 16 29 c9 16 44 81 78 144 l62 115 325 111
c179 62 329 112 334 113 5 0 135 -57 290 -128z"/>
<path d="M2800 4569 c-204 -68 -300 -105 -310 -119 -8 -11 -44 -76 -80 -145
-52 -100 -63 -128 -54 -142 6 -9 15 -18 21 -20 5 -2 38 55 72 126 60 127 63
131 101 141 22 6 156 49 297 95 l258 84 240 -111 c132 -61 265 -122 296 -135
l56 -24 55 -157 c31 -86 75 -217 99 -290 l44 -133 -33 -63 c-18 -35 -39 -72
-47 -82 -14 -19 -14 -19 -34 1 -19 20 -19 20 11 85 l30 64 -33 96 c-72 209
-150 415 -161 425 -7 6 -129 64 -271 129 l-257 118 -40 -14 c-22 -7 -40 -17
-41 -23 0 -5 80 -53 177 -105 l178 -95 43 -149 42 -148 -22 -39 c-24 -42 -28
-44 -58 -29 -15 9 -17 15 -9 30 17 31 11 70 -28 184 l-37 109 -205 108 c-113
60 -212 109 -220 109 -8 0 -85 -21 -171 -47 l-157 -47 -25 -52 c-15 -29 -23
-55 -19 -57 4 -3 93 22 198 54 l192 59 168 -91 c93 -50 173 -94 177 -98 4 -4
18 -46 30 -93 19 -69 21 -89 11 -102 -14 -20 -68 -12 -60 9 2 8 -5 42 -16 78
l-21 64 -144 76 c-79 43 -151 77 -161 77 -9 0 -93 -24 -186 -53 l-170 -52 -33
-57 c-32 -54 -33 -59 -18 -82 15 -23 15 -24 -17 -30 -31 -6 -38 -1 -153 114
l-120 120 -240 -1 c-132 0 -287 -4 -345 -8 l-105 -7 -46 -49 c-25 -28 -134
-146 -243 -264 l-197 -214 7 -321 7 -321 106 -110 c58 -60 113 -111 121 -113
8 -1 22 2 30 8 12 8 -5 29 -87 112 l-103 103 0 310 0 310 216 235 c212 231
217 235 262 241 26 4 168 8 315 9 l269 2 83 -89 c46 -48 84 -94 85 -100 0 -7
-11 -16 -26 -19 -22 -6 -36 4 -104 70 l-79 77 -173 -6 c-95 -3 -219 -8 -275
-11 l-101 -6 -201 -218 c-192 -208 -201 -221 -201 -259 0 -22 4 -42 8 -45 4
-2 74 59 155 136 l148 140 156 -4 156 -4 54 -57 c29 -32 53 -61 53 -65 0 -4
-9 -13 -21 -20 -19 -12 -25 -9 -69 32 l-49 46 -127 0 -126 0 -172 -166 -171
-167 -7 -171 -6 -171 41 -42 c23 -24 45 -43 49 -43 4 0 8 91 8 203 l1 202 145
139 145 139 97 -7 c96 -6 97 -6 129 -43 30 -35 30 -38 15 -59 l-17 -22 -30 29
c-28 26 -37 29 -100 29 l-70 -1 -122 -119 -123 -118 0 -194 0 -194 43 -42 c37
-36 48 -42 71 -36 39 9 41 21 12 64 -25 39 -26 44 -26 203 l0 162 79 79 78 78
45 -7 c57 -9 73 -18 64 -40 -5 -14 -14 -16 -49 -11 -43 7 -44 6 -105 -58 l-62
-64 0 -149 c0 -115 3 -153 15 -170 12 -17 13 -31 4 -80 l-10 -59 -170 -84
c-93 -47 -171 -91 -173 -100 -3 -8 -30 -96 -60 -195 -30 -99 -71 -239 -91
-312 l-36 -132 99 -173 c54 -95 133 -234 175 -309 l76 -135 307 -97 306 -97
147 70 c136 65 146 72 144 96 -1 15 -4 28 -7 31 -2 2 -58 -25 -125 -61 -66
-36 -126 -66 -134 -66 -8 0 -79 22 -158 49 -79 27 -209 69 -290 95 -136 43
-146 47 -161 78 -8 18 -79 145 -157 283 l-141 249 45 156 c25 85 66 218 90
296 l45 141 102 48 c57 26 118 54 136 61 l32 14 0 -35 c0 -34 -2 -36 -108 -89
l-108 -54 -47 -154 c-25 -84 -60 -203 -78 -263 l-31 -111 144 -254 c144 -256
151 -265 217 -285 32 -10 31 -7 -69 202 l-83 172 53 149 53 149 71 31 c51 21
73 27 78 19 18 -28 6 -47 -44 -74 l-51 -28 -39 -110 c-21 -60 -38 -118 -38
-128 0 -10 46 -114 103 -230 l104 -212 164 -56 164 -57 48 25 c27 13 47 29 45
35 -3 7 -88 41 -191 77 l-187 66 -85 176 -85 175 32 92 c31 87 35 92 72 108
39 15 40 15 57 -8 18 -23 17 -23 -14 -40 -26 -13 -36 -28 -50 -71 -9 -29 -17
-62 -16 -73 0 -10 33 -84 72 -164 l72 -144 179 -63 180 -62 58 26 c32 14 62
33 67 41 7 12 12 12 38 -1 28 -15 30 -21 41 -109 7 -51 17 -121 23 -155 l11
-62 156 -109 c87 -60 213 -147 282 -192 l124 -83 344 69 c189 38 347 71 351
74 18 12 365 507 369 527 4 19 -20 224 -34 294 -5 28 -41 46 -57 30 -5 -5 3
-68 18 -141 14 -74 23 -140 21 -147 -3 -7 -45 -66 -94 -130 -49 -65 -125 -170
-170 -234 -45 -64 -87 -121 -94 -126 -7 -5 -154 -38 -327 -72 l-314 -63 -111
75 c-61 42 -174 120 -252 175 l-141 100 -6 49 c-4 26 -9 79 -13 116 l-7 68 34
-14 c33 -13 34 -16 46 -96 6 -46 15 -87 20 -91 4 -4 96 -67 203 -141 107 -73
206 -140 219 -149 22 -16 38 -13 314 43 208 42 295 64 304 75 20 28 37 62 32
66 -2 3 -94 -8 -204 -24 l-199 -28 -81 61 c-164 124 -175 135 -175 177 0 34 3
38 30 42 27 4 30 1 36 -26 5 -25 25 -46 104 -103 61 -46 108 -73 124 -73 37 0
446 59 457 66 5 3 55 65 110 137 l101 132 -6 55 c-4 30 -10 58 -14 62 -5 5
-63 -65 -130 -155 l-121 -163 -198 -26 -198 -27 -72 56 c-40 30 -73 61 -73 68
0 7 12 15 26 18 20 3 41 -5 83 -34 l57 -39 167 24 c92 13 169 25 171 27 2 2
53 70 115 151 106 140 111 149 111 195 0 41 5 54 39 93 l38 44 89 -13 c49 -7
105 -15 124 -18 33 -5 49 5 235 148 110 84 232 178 270 209 l70 57 38 339 c21
187 38 347 37 356 0 10 -85 132 -190 272 -168 226 -193 256 -222 261 -18 3
-89 16 -158 29 l-125 23 -17 -21 c-10 -13 -13 -25 -8 -30 5 -5 71 -17 145 -27
75 -9 138 -19 139 -20 2 -2 49 -68 104 -145 55 -78 135 -189 179 -247 l79
-105 -38 -323 c-37 -322 -38 -324 -65 -347 -16 -13 -125 -97 -244 -186 l-216
-163 -81 15 c-78 15 -80 16 -69 39 9 21 17 23 75 23 l65 0 141 107 c219 166
286 222 291 246 2 12 18 145 35 295 l31 272 -27 35 c-14 19 -30 35 -34 35 -4
0 -15 -42 -25 -92 -9 -51 -25 -143 -36 -203 l-20 -110 -127 -85 c-93 -63 -134
-85 -153 -82 -22 3 -25 7 -21 32 2 17 10 30 18 30 13 0 224 148 224 157 0 3
18 110 41 238 l41 233 -97 138 c-54 77 -99 140 -100 142 -6 7 -111 19 -117 14
-3 -4 46 -81 109 -171 l116 -163 -32 -182 c-18 -99 -34 -189 -37 -198 -5 -17
-117 -98 -135 -98 -5 0 -9 13 -9 29 0 22 10 38 41 63 l41 35 29 166 30 166
-106 153 c-59 84 -114 156 -123 160 -9 4 -33 9 -53 13 -28 4 -43 14 -63 45
-14 22 -26 46 -26 54 0 8 25 64 57 125 l56 109 -63 184 c-74 217 -145 410
-163 445 -9 17 -40 36 -90 59 -43 19 -185 83 -318 144 -132 60 -243 110 -247
109 -4 0 -140 -45 -302 -100z m855 -589 c75 -224 76 -229 60 -259 -13 -27 -19
-30 -35 -21 -24 13 -32 2 -188 -287 l-115 -214 -79 -40 c-76 -38 -118 -44
-118 -17 0 6 60 126 134 267 74 141 152 291 172 335 35 73 36 80 20 91 -16 12
-16 16 8 64 14 28 26 61 26 73 0 13 -18 79 -40 148 -22 69 -40 128 -40 132 0
3 27 -5 59 -19 l59 -26 77 -227z m-674 148 c88 -47 99 -56 99 -80 0 -21 -5
-28 -19 -28 -10 0 -21 7 -24 15 -7 16 -138 85 -163 85 -10 0 -81 -20 -160 -45
-143 -45 -174 -52 -174 -37 0 23 51 48 187 92 81 26 150 49 152 49 2 1 48 -23
102 -51z m-846 -169 c48 -48 49 -51 31 -65 -23 -17 -42 8 182 -231 l153 -162
11 -86 c11 -77 10 -87 -5 -103 -16 -16 -31 -3 -256 223 -132 132 -246 241
-254 243 -8 2 -18 -2 -22 -8 -5 -8 -34 14 -81 61 l-74 74 -152 5 -152 5 34 39
c19 21 43 42 54 46 12 5 125 9 251 9 l231 1 49 -51z m-568 -724 c-12 -30 -25
-55 -29 -55 -5 0 -8 17 -8 39 0 29 6 43 23 54 35 25 37 21 14 -38z m2518 -123
l47 -64 -12 -96 c-11 -78 -15 -91 -22 -71 -5 13 -10 53 -10 89 -1 36 -7 74
-14 86 -17 24 -58 142 -46 129 5 -6 30 -38 57 -73z m-1961 -402 c8 -18 7 -25
-2 -28 -7 -2 -144 -70 -305 -150 -264 -133 -292 -150 -295 -173 -3 -22 -18
-35 -90 -73 l-87 -46 -50 -145 -49 -145 -32 56 -32 56 18 63 c10 34 41 139 70
233 l53 171 70 32 c62 28 71 30 79 15 5 -9 15 -16 23 -16 8 0 112 46 231 103
l216 103 86 -16 c72 -14 87 -20 96 -40z m2260 -260 l-7 -62 -186 -139 c-135
-101 -194 -139 -214 -139 -24 0 -26 2 -17 19 14 27 0 30 -329 90 l-275 50 -63
63 c-62 61 -77 93 -49 104 8 3 159 -20 335 -51 390 -68 450 -75 463 -52 6 12
23 17 61 17 49 1 58 5 167 84 63 46 116 82 118 81 2 -2 0 -31 -4 -65z m-1734
-642 c27 -190 54 -357 59 -371 6 -15 19 -27 33 -29 20 -3 24 -11 32 -68 l9
-65 121 -90 121 -90 -63 -13 c-74 -16 -43 -31 -289 142 l-171 121 -4 48 c-3
46 -2 48 20 44 12 -2 22 1 22 7 0 6 -16 135 -37 286 l-36 274 39 74 c36 68 68
100 86 83 4 -4 30 -162 58 -353z m-923 95 c-9 -20 -4 -37 28 -102 l38 -78 145
-54 c79 -30 152 -59 161 -66 14 -10 14 -12 -3 -19 -13 -5 -74 11 -178 45
l-159 53 -50 100 -50 100 26 40 c24 37 27 38 40 22 9 -14 10 -24 2 -41z m1772
-327 l-52 -74 -61 -11 c-114 -19 -166 -24 -166 -14 0 10 79 38 150 53 29 6 53
19 69 37 19 23 98 83 109 83 1 0 -21 -33 -49 -74z"/>
</g>
</svg>
